<?xml version="1.0" encoding="UTF-8" standalone="no"?>
<svg
   xmlns:dc="http://purl.org/dc/elements/1.1/"
   xmlns:cc="http://creativecommons.org/ns#"
   xmlns:rdf="http://www.w3.org/1999/02/22-rdf-syntax-ns#"
   xmlns:svg="http://www.w3.org/2000/svg"
   xmlns="http://www.w3.org/2000/svg"
   xmlns:sodipodi="http://sodipodi.sourceforge.net/DTD/sodipodi-0.dtd"
   xmlns:inkscape="http://www.inkscape.org/namespaces/inkscape"
   width="296mm"
   height="147mm"
   viewBox="0 0 296 147"
   version="1.1"
   preserveAspectRatio="xMidYMid meet"
   id="svg840"
   sodipodi:docname="microcase.svg"
   inkscape:version="1.0.2 (e86c8708, 2021-01-15)">
  <metadata
     id="metadata846">
    <rdf:RDF>
      <cc:Work
         rdf:about="">
        <dc:format>image/svg+xml</dc:format>
        <dc:type
           rdf:resource="http://purl.org/dc/dcmitype/StillImage" />
        <dc:title></dc:title>
      </cc:Work>
    </rdf:RDF>
  </metadata>
  <defs
     id="defs844" />
  <sodipodi:namedview
     pagecolor="#ffffff"
     bordercolor="#666666"
     borderopacity="1"
     objecttolerance="10"
     gridtolerance="10"
     guidetolerance="10"
     inkscape:pageopacity="0"
     inkscape:pageshadow="2"
     inkscape:window-width="1280"
     inkscape:window-height="886"
     id="namedview842"
     showgrid="false"
     inkscape:snap-page="false"
     inkscape:snap-others="true"
     inkscape:snap-nodes="true"
     inkscape:snap-global="true"
     inkscape:snap-bbox="false"
     inkscape:snap-object-midpoints="true"
     inkscape:snap-center="false"
     inkscape:zoom="0.63643018"
     inkscape:cx="547.67116"
     inkscape:cy="385.41497"
     inkscape:window-x="0"
     inkscape:window-y="23"
     inkscape:window-maximized="0"
     inkscape:current-layer="svg840">
    <inkscape:grid
       type="xygrid"
       id="grid1605" />
  </sodipodi:namedview>
  <g
     id="svgGroup"
     stroke-linecap="round"
     fill-rule="evenodd"
     font-size="9pt"
     stroke="#000"
     stroke-width="0.25mm"
     fill="none"
     style="stroke:#000;stroke-width:0.25mm;fill:none">
    <path
       d="M 0 95 L 0 111.98 L 3 111.98 L 3 130.02 L 0 130.02 L 0 147 L 27.44 147 L 27.44 144 L 45.48 144 L 45.48 147 L 63.52 147 L 63.52 144 L 81.56 144 L 81.56 147 L 99.6 147 L 109 147 L 109 130.02 L 106 130.02 L 106 111.98 L 109 111.98 L 109 95 L 81.56 95 L 81.56 98 L 63.52 98 L 63.52 95 L 45.48 95 L 45.48 98 L 27.44 98 L 27.44 95 L 9.4 95 L 0 95 Z"
       id="front_outsideCutPath"
       stroke="#FF0000"
       stroke-width="0.1"
       style="stroke:#FF0000;stroke-width:0.1"
       vector-effect="non-scaling-stroke" />
    <path
       d="M 190 78 L 190 101.98 L 187 101.98 L 187 120.02 L 190 120.02 L 190 138.06 L 190 144 L 214.44 144 L 214.44 147 L 232.48 147 L 232.48 144 L 250.52 144 L 250.52 147 L 268.56 147 L 268.56 144 L 286.6 144 L 293 144 L 293 120.02 L 296 120.02 L 296 101.98 L 293 101.98 L 293 83.94 L 293 78 L 268.56 78 L 268.56 75 L 250.52 75 L 250.52 78 L 232.48 78 L 232.48 75 L 214.44 75 L 214.44 78 L 196.4 78 L 190 78 Z"
       id="top_outsideCutPath"
       stroke="#FF0000"
       stroke-width="0.1"
       style="stroke:#FF0000;stroke-width:0.1"
       vector-effect="non-scaling-stroke" />
    <path
       d="M 0 40 L 0 56.98 L 3 56.98 L 3 75.02 L 0 75.02 L 0 92 L 27.44 92 L 27.44 89 L 45.48 89 L 45.48 92 L 63.52 92 L 63.52 89 L 81.56 89 L 81.56 92 L 99.6 92 L 109 92 L 109 75.02 L 106 75.02 L 106 56.98 L 109 56.98 L 109 40 L 81.56 40 L 81.56 43 L 63.52 43 L 63.52 40 L 45.48 40 L 45.48 43 L 27.44 43 L 27.44 40 L 9.4 40 L 0 40 Z"
       id="back_outsideCutPath"
       stroke="#FF0000"
       stroke-width="0.1"
       style="stroke:#FF0000;stroke-width:0.1"
       vector-effect="non-scaling-stroke" />
    <path
       d="M 190 3 L 190 26.98 L 187 26.98 L 187 45.02 L 190 45.02 L 190 63.06 L 190 69 L 214.44 69 L 214.44 72 L 232.48 72 L 232.48 69 L 250.52 69 L 250.52 72 L 268.56 72 L 268.56 69 L 286.6 69 L 293 69 L 293 45.02 L 296 45.02 L 296 26.98 L 293 26.98 L 293 8.94 L 293 3 L 268.56 3 L 268.56 0 L 250.52 0 L 250.52 3 L 232.48 3 L 232.48 0 L 214.44 0 L 214.44 3 L 196.4 3 L 190 3 Z"
       id="bottom_outsideCutPath"
       stroke="#FF0000"
       stroke-width="0.1"
       style="stroke:#FF0000;stroke-width:0.1"
       vector-effect="non-scaling-stroke" />
  </g>
  <g
     id="g1610">
    <path
       d="M 115 40 L 115 56.98 L 112 56.98 L 112 75.02 L 115 75.02 L 115 92 L 138.98 92 L 138.98 89 L 157.02 89 L 157.02 92 L 175.06 92 L 181 92 L 181 75.02 L 184 75.02 L 184 56.98 L 181 56.98 L 181 40 L 157.02 40 L 157.02 43 L 138.98 43 L 138.98 40 L 120.94 40 L 115 40 Z"
       id="right_outsideCutPath"
       stroke="#FF0000"
       stroke-width="0.1"
       style="stroke:#FF0000;stroke-width:0.1;fill:none"
       vector-effect="non-scaling-stroke" />
    <circle
       style="fill:none;fill-opacity:1;stroke:#ff0000;stroke-width:0.100013;stroke-miterlimit:4;stroke-dasharray:none;stroke-opacity:1"
       id="path918"
       cx="49.006874"
       cy="-132"
       r="3.5"
       transform="rotate(90)" />
  </g>
  <g
     id="g1618">
    <path
       d="M 115 95 L 115 111.98 L 112 111.98 L 112 130.02 L 115 130.02 L 115 147 L 138.98 147 L 138.98 144 L 157.02 144 L 157.02 147 L 175.06 147 L 181 147 L 181 130.02 L 184 130.02 L 184 111.98 L 181 111.98 L 181 95 L 157.02 95 L 157.02 98 L 138.98 98 L 138.98 95 L 120.94 95 L 115 95 Z"
       id="left_outsideCutPath"
       stroke="#FF0000"
       stroke-width="0.1"
       style="stroke:#FF0000;stroke-width:0.1;fill:none"
       vector-effect="non-scaling-stroke" />
    <rect
       style="fill:none;fill-opacity:1;stroke:#ff0000;stroke-width:0.158997;stroke-miterlimit:4;stroke-dasharray:none;stroke-opacity:1"
       id="rect916"
       width="9.8410025"
       height="12.841002"
       x="103.5795"
       y="-154.496"
       transform="rotate(90)" />
    <rect
       style="fill:none;fill-opacity:1;stroke:#ff0000;stroke-width:0.100013;stroke-miterlimit:4;stroke-dasharray:none;stroke-opacity:1"
       id="rect916-2"
       width="7"
       height="15"
       x="130.04515"
       y="-140"
       transform="rotate(90)" />
    <rect
       style="fill:none;fill-opacity:1;stroke:#ff0000;stroke-width:0.100013;stroke-miterlimit:4;stroke-dasharray:none;stroke-opacity:1"
       id="rect916-2-7"
       width="7"
       height="15"
       x="130.04515"
       y="-172"
       transform="rotate(90)" />
    <rect
       style="fill:none;fill-opacity:1;stroke:#ff0000;stroke-width:0.100013;stroke-miterlimit:4;stroke-dasharray:none;stroke-opacity:1"
       id="rect916-2-7-0"
       width="5"
       height="11"
       x="131.04515"
       y="-154"
       transform="rotate(90)" />
  </g>
  <circle
     style="fill:none;fill-opacity:1;stroke:#ff0000;stroke-width:0.112691;stroke-miterlimit:4;stroke-dasharray:none;stroke-opacity:1"
     id="path918-0"
     cx="24"
     cy="-213"
     transform="rotate(90)"
     r="3.9436548" />
  <circle
     style="fill:none;fill-opacity:1;stroke:#ff0000;stroke-width:0.112691;stroke-miterlimit:4;stroke-dasharray:none;stroke-opacity:1"
     id="path918-0-3"
     cx="48"
     cy="-213"
     transform="rotate(90)"
     r="3.9436548" />
  <circle
     style="fill:none;fill-opacity:1;stroke:#ff0000;stroke-width:0.112691;stroke-miterlimit:4;stroke-dasharray:none;stroke-opacity:1"
     id="path918-0-3-7"
     cx="48"
     cy="-270"
     transform="rotate(90)"
     r="3.9436548" />
  <circle
     style="fill:none;fill-opacity:1;stroke:#ff0000;stroke-width:0.112691;stroke-miterlimit:4;stroke-dasharray:none;stroke-opacity:1"
     id="path918-0-3-4"
     cx="24"
     cy="-270"
     transform="rotate(90)"
     r="3.9436548" />
</svg>
