<?xml version="1.0" encoding="UTF-8" standalone="no"?>
<svg
   xmlns:dc="http://purl.org/dc/elements/1.1/"
   xmlns:cc="http://creativecommons.org/ns#"
   xmlns:rdf="http://www.w3.org/1999/02/22-rdf-syntax-ns#"
   xmlns:svg="http://www.w3.org/2000/svg"
   xmlns="http://www.w3.org/2000/svg"
   xmlns:sodipodi="http://sodipodi.sourceforge.net/DTD/sodipodi-0.dtd"
   xmlns:inkscape="http://www.inkscape.org/namespaces/inkscape"
   width="296mm"
   height="147mm"
   viewBox="0 0 296 147"
   version="1.1"
   preserveAspectRatio="xMidYMid meet"
   id="svg1696"
   sodipodi:docname="microcase-taller-tslot.svg"
   inkscape:version="1.0.2 (e86c8708, 2021-01-15)">
  <metadata
     id="metadata1702">
    <rdf:RDF>
      <cc:Work
         rdf:about="">
        <dc:format>image/svg+xml</dc:format>
        <dc:type
           rdf:resource="http://purl.org/dc/dcmitype/StillImage" />
      </cc:Work>
    </rdf:RDF>
  </metadata>
  <defs
     id="defs1700" />
  <sodipodi:namedview
     pagecolor="#ffffff"
     bordercolor="#666666"
     borderopacity="1"
     objecttolerance="10"
     gridtolerance="10"
     guidetolerance="10"
     inkscape:pageopacity="0"
     inkscape:pageshadow="2"
     inkscape:window-width="1280"
     inkscape:window-height="1024"
     id="namedview1698"
     showgrid="false"
     inkscape:zoom="0.48983671"
     inkscape:cx="355.23423"
     inkscape:cy="277.79528"
     inkscape:window-x="0"
     inkscape:window-y="0"
     inkscape:window-maximized="0"
     inkscape:current-layer="svg1696" />
  <g
     id="svgGroup"
     stroke-linecap="round"
     fill-rule="evenodd"
     font-size="9pt"
     stroke="#000"
     stroke-width="0.25mm"
     fill="none"
     style="stroke:#000;stroke-width:0.25mm;fill:none">
    <path
       d="M 0 85 L 0 92.75 L 3 92.75 L 3 99.125 L 5.75 99.125 L 5.75 97.875 L 8 97.875 L 8 99.125 L 10.25 99.125 L 10.25 101.875 L 8 101.875 L 8 103.125 L 5.75 103.125 L 5.75 101.875 L 3 101.875 L 3 108.25 L 0 108.25 L 0 123.75 L 3 123.75 L 3 130.125 L 5.75 130.125 L 5.75 128.875 L 8 128.875 L 8 130.125 L 10.25 130.125 L 10.25 132.875 L 8 132.875 L 8 134.125 L 5.75 134.125 L 5.75 132.875 L 3 132.875 L 3 139.25 L 0 139.25 L 0 147 L 13.625 147 L 13.625 144 L 25.875 144 L 25.875 141.25 L 24.625 141.25 L 24.625 139 L 25.875 139 L 25.875 136.75 L 28.625 136.75 L 28.625 139 L 29.875 139 L 29.875 141.25 L 28.625 141.25 L 28.625 144 L 40.875 144 L 40.875 147 L 68.125 147 L 68.125 144 L 80.375 144 L 80.375 141.25 L 79.125 141.25 L 79.125 139 L 80.375 139 L 80.375 136.75 L 83.125 136.75 L 83.125 139 L 84.375 139 L 84.375 141.25 L 83.125 141.25 L 83.125 144 L 95.375 144 L 95.375 147 L 109 147 L 109 139.25 L 106 139.25 L 106 132.875 L 103.25 132.875 L 103.25 134.125 L 101 134.125 L 101 132.875 L 98.75 132.875 L 98.75 130.125 L 101 130.125 L 101 128.875 L 103.25 128.875 L 103.25 130.125 L 106 130.125 L 106 123.75 L 109 123.75 L 109 108.25 L 106 108.25 L 106 101.875 L 103.25 101.875 L 103.25 103.125 L 101 103.125 L 101 101.875 L 98.75 101.875 L 98.75 99.125 L 101 99.125 L 101 97.875 L 103.25 97.875 L 103.25 99.125 L 106 99.125 L 106 92.75 L 109 92.75 L 109 85 L 95.375 85 L 95.375 88 L 83.125 88 L 83.125 90.75 L 84.375 90.75 L 84.375 93 L 83.125 93 L 83.125 95.25 L 80.375 95.25 L 80.375 93 L 79.125 93 L 79.125 90.75 L 80.375 90.75 L 80.375 88 L 68.125 88 L 68.125 85 L 40.875 85 L 40.875 88 L 28.625 88 L 28.625 90.75 L 29.875 90.75 L 29.875 93 L 28.625 93 L 28.625 95.25 L 25.875 95.25 L 25.875 93 L 24.625 93 L 24.625 90.75 L 25.875 90.75 L 25.875 88 L 13.625 88 L 13.625 85 L 0 85 Z"
       id="front_outsideCutPath"
       stroke="#FF0000"
       stroke-width="0.1"
       style="stroke:#FF0000;stroke-width:0.1"
       vector-effect="non-scaling-stroke" />
    <path
       d="M 115 85 L 115 92.75 L 112 92.75 L 112 99.125 L 114.75 99.125 L 114.75 100.5 L 114.75 101.875 L 112 101.875 L 112 108.25 L 115 108.25 L 115 123.75 L 112 123.75 L 112 130.125 L 114.75 130.125 L 114.75 131.5 L 114.75 132.875 L 112 132.875 L 112 139.25 L 115 139.25 L 115 147 L 121 147 L 121 144 L 128.625 144 L 128.625 141.25 L 127.375 141.25 L 127.375 139 L 128.625 139 L 128.625 136.75 L 131.375 136.75 L 131.375 139 L 132.625 139 L 132.625 141.25 L 131.375 141.25 L 131.375 144 L 139 144 L 139 147 L 157 147 L 157 144 L 164.625 144 L 164.625 141.25 L 163.375 141.25 L 163.375 139 L 164.625 139 L 164.625 136.75 L 167.375 136.75 L 167.375 139 L 168.625 139 L 168.625 141.25 L 167.375 141.25 L 167.375 144 L 175 144 L 175 147 L 181 147 L 181 139.25 L 184 139.25 L 184 132.875 L 181.25 132.875 L 181.25 131.5 L 181.25 130.125 L 184 130.125 L 184 123.75 L 181 123.75 L 181 108.25 L 184 108.25 L 184 101.875 L 181.25 101.875 L 181.25 100.5 L 181.25 99.125 L 184 99.125 L 184 92.75 L 181 92.75 L 181 85 L 175 85 L 175 88 L 167.375 88 L 167.375 90.75 L 168.625 90.75 L 168.625 93 L 167.375 93 L 167.375 95.25 L 164.625 95.25 L 164.625 93 L 163.375 93 L 163.375 90.75 L 164.625 90.75 L 164.625 88 L 157 88 L 157 85 L 139 85 L 139 88 L 131.375 88 L 131.375 90.75 L 132.625 90.75 L 132.625 93 L 131.375 93 L 131.375 95.25 L 128.625 95.25 L 128.625 93 L 127.375 93 L 127.375 90.75 L 128.625 90.75 L 128.625 88 L 121 88 L 121 85 L 115 85 Z"
       id="left_outsideCutPath"
       stroke="#FF0000"
       stroke-width="0.1"
       style="stroke:#FF0000;stroke-width:0.1"
       vector-effect="non-scaling-stroke" />
    <path
       d="M 190 78 L 190 84 L 187 84 L 187 91.625 L 189.75 91.625 L 189.75 93 L 189.75 94.375 L 187 94.375 L 187 102 L 190 102 L 190 120 L 187 120 L 187 127.625 L 189.75 127.625 L 189.75 129 L 189.75 130.375 L 187 130.375 L 187 138 L 190 138 L 190 144 L 200.625 144 L 200.625 147 L 212.875 147 L 212.875 144.25 L 214.25 144.25 L 215.625 144.25 L 215.625 147 L 227.875 147 L 227.875 144 L 255.125 144 L 255.125 147 L 267.375 147 L 267.375 144.25 L 268.75 144.25 L 270.125 144.25 L 270.125 147 L 282.375 147 L 282.375 144 L 293 144 L 293 138 L 296 138 L 296 130.375 L 293.25 130.375 L 293.25 129 L 293.25 127.625 L 296 127.625 L 296 120 L 293 120 L 293 102 L 296 102 L 296 94.375 L 293.25 94.375 L 293.25 93 L 293.25 91.625 L 296 91.625 L 296 84 L 293 84 L 293 78 L 282.375 78 L 282.375 75 L 270.125 75 L 270.125 77.75 L 268.75 77.75 L 267.375 77.75 L 267.375 75 L 255.125 75 L 255.125 78 L 227.875 78 L 227.875 75 L 215.625 75 L 215.625 77.75 L 214.25 77.75 L 212.875 77.75 L 212.875 75 L 200.625 75 L 200.625 78 L 190 78 Z"
       id="top_outsideCutPath"
       stroke="#FF0000"
       stroke-width="0.1"
       style="stroke:#FF0000;stroke-width:0.1"
       vector-effect="non-scaling-stroke" />
    <path
       d="M 0 20 L 0 27.75 L 3 27.75 L 3 34.125 L 5.75 34.125 L 5.75 32.875 L 8 32.875 L 8 34.125 L 10.25 34.125 L 10.25 36.875 L 8 36.875 L 8 38.125 L 5.75 38.125 L 5.75 36.875 L 3 36.875 L 3 43.25 L 0 43.25 L 0 58.75 L 3 58.75 L 3 65.125 L 5.75 65.125 L 5.75 63.875 L 8 63.875 L 8 65.125 L 10.25 65.125 L 10.25 67.875 L 8 67.875 L 8 69.125 L 5.75 69.125 L 5.75 67.875 L 3 67.875 L 3 74.25 L 0 74.25 L 0 82 L 13.625 82 L 13.625 79 L 25.875 79 L 25.875 76.25 L 24.625 76.25 L 24.625 74 L 25.875 74 L 25.875 71.75 L 28.625 71.75 L 28.625 74 L 29.875 74 L 29.875 76.25 L 28.625 76.25 L 28.625 79 L 40.875 79 L 40.875 82 L 68.125 82 L 68.125 79 L 80.375 79 L 80.375 76.25 L 79.125 76.25 L 79.125 74 L 80.375 74 L 80.375 71.75 L 83.125 71.75 L 83.125 74 L 84.375 74 L 84.375 76.25 L 83.125 76.25 L 83.125 79 L 95.375 79 L 95.375 82 L 109 82 L 109 74.25 L 106 74.25 L 106 67.875 L 103.25 67.875 L 103.25 69.125 L 101 69.125 L 101 67.875 L 98.75 67.875 L 98.75 65.125 L 101 65.125 L 101 63.875 L 103.25 63.875 L 103.25 65.125 L 106 65.125 L 106 58.75 L 109 58.75 L 109 43.25 L 106 43.25 L 106 36.875 L 103.25 36.875 L 103.25 38.125 L 101 38.125 L 101 36.875 L 98.75 36.875 L 98.75 34.125 L 101 34.125 L 101 32.875 L 103.25 32.875 L 103.25 34.125 L 106 34.125 L 106 27.75 L 109 27.75 L 109 20 L 95.375 20 L 95.375 23 L 83.125 23 L 83.125 25.75 L 84.375 25.75 L 84.375 28 L 83.125 28 L 83.125 30.25 L 80.375 30.25 L 80.375 28 L 79.125 28 L 79.125 25.75 L 80.375 25.75 L 80.375 23 L 68.125 23 L 68.125 20 L 40.875 20 L 40.875 23 L 28.625 23 L 28.625 25.75 L 29.875 25.75 L 29.875 28 L 28.625 28 L 28.625 30.25 L 25.875 30.25 L 25.875 28 L 24.625 28 L 24.625 25.75 L 25.875 25.75 L 25.875 23 L 13.625 23 L 13.625 20 L 0 20 Z"
       id="back_outsideCutPath"
       stroke="#FF0000"
       stroke-width="0.1"
       style="stroke:#FF0000;stroke-width:0.1"
       vector-effect="non-scaling-stroke" />
    <path
       d="M 115 20 L 115 27.75 L 112 27.75 L 112 34.125 L 114.75 34.125 L 114.75 35.5 L 114.75 36.875 L 112 36.875 L 112 43.25 L 115 43.25 L 115 58.75 L 112 58.75 L 112 65.125 L 114.75 65.125 L 114.75 66.5 L 114.75 67.875 L 112 67.875 L 112 74.25 L 115 74.25 L 115 82 L 121 82 L 121 79 L 128.625 79 L 128.625 76.25 L 127.375 76.25 L 127.375 74 L 128.625 74 L 128.625 71.75 L 131.375 71.75 L 131.375 74 L 132.625 74 L 132.625 76.25 L 131.375 76.25 L 131.375 79 L 139 79 L 139 82 L 157 82 L 157 79 L 164.625 79 L 164.625 76.25 L 163.375 76.25 L 163.375 74 L 164.625 74 L 164.625 71.75 L 167.375 71.75 L 167.375 74 L 168.625 74 L 168.625 76.25 L 167.375 76.25 L 167.375 79 L 175 79 L 175 82 L 181 82 L 181 74.25 L 184 74.25 L 184 67.875 L 181.25 67.875 L 181.25 66.5 L 181.25 65.125 L 184 65.125 L 184 58.75 L 181 58.75 L 181 43.25 L 184 43.25 L 184 36.875 L 181.25 36.875 L 181.25 35.5 L 181.25 34.125 L 184 34.125 L 184 27.75 L 181 27.75 L 181 20 L 175 20 L 175 23 L 167.375 23 L 167.375 25.75 L 168.625 25.75 L 168.625 28 L 167.375 28 L 167.375 30.25 L 164.625 30.25 L 164.625 28 L 163.375 28 L 163.375 25.75 L 164.625 25.75 L 164.625 23 L 157 23 L 157 20 L 139 20 L 139 23 L 131.375 23 L 131.375 25.75 L 132.625 25.75 L 132.625 28 L 131.375 28 L 131.375 30.25 L 128.625 30.25 L 128.625 28 L 127.375 28 L 127.375 25.75 L 128.625 25.75 L 128.625 23 L 121 23 L 121 20 L 115 20 Z"
       id="right_outsideCutPath"
       stroke="#FF0000"
       stroke-width="0.1"
       style="stroke:#FF0000;stroke-width:0.1"
       vector-effect="non-scaling-stroke" />
    <path
       d="M 190 3 L 190 9 L 187 9 L 187 16.625 L 189.75 16.625 L 189.75 18 L 189.75 19.375 L 187 19.375 L 187 27 L 190 27 L 190 45 L 187 45 L 187 52.625 L 189.75 52.625 L 189.75 54 L 189.75 55.375 L 187 55.375 L 187 63 L 190 63 L 190 69 L 200.625 69 L 200.625 72 L 212.875 72 L 212.875 69.25 L 214.25 69.25 L 215.625 69.25 L 215.625 72 L 227.875 72 L 227.875 69 L 255.125 69 L 255.125 72 L 267.375 72 L 267.375 69.25 L 268.75 69.25 L 270.125 69.25 L 270.125 72 L 282.375 72 L 282.375 69 L 293 69 L 293 63 L 296 63 L 296 55.375 L 293.25 55.375 L 293.25 54 L 293.25 52.625 L 296 52.625 L 296 45 L 293 45 L 293 27 L 296 27 L 296 19.375 L 293.25 19.375 L 293.25 18 L 293.25 16.625 L 296 16.625 L 296 9 L 293 9 L 293 3 L 282.375 3 L 282.375 0 L 270.125 0 L 270.125 2.75 L 268.75 2.75 L 267.375 2.75 L 267.375 0 L 255.125 0 L 255.125 3 L 227.875 3 L 227.875 0 L 215.625 0 L 215.625 2.75 L 214.25 2.75 L 212.875 2.75 L 212.875 0 L 200.625 0 L 200.625 3 L 190 3 Z"
       id="bottom_outsideCutPath"
       stroke="#FF0000"
       stroke-width="0.1"
       style="stroke:#FF0000;stroke-width:0.1"
       vector-effect="non-scaling-stroke" />
  </g>
  <rect
     style="fill:none;fill-opacity:1;stroke:#ff0000;stroke-width:0.158997;stroke-miterlimit:4;stroke-dasharray:none;stroke-opacity:1"
     id="rect916"
     width="9.8410025"
     height="12.841002"
     x="103.6845"
     y="-154.496"
     transform="rotate(90)" />
  <rect
     style="fill:none;fill-opacity:1;stroke:#ff0000;stroke-width:0.100013;stroke-miterlimit:4;stroke-dasharray:none;stroke-opacity:1"
     id="rect916-2"
     width="7"
     height="15"
     x="130.15016"
     y="-140"
     transform="rotate(90)" />
  <rect
     style="fill:none;fill-opacity:1;stroke:#ff0000;stroke-width:0.100013;stroke-miterlimit:4;stroke-dasharray:none;stroke-opacity:1"
     id="rect916-2-7"
     width="7"
     height="15"
     x="130.15016"
     y="-172"
     transform="rotate(90)" />
  <rect
     style="fill:none;fill-opacity:1;stroke:#ff0000;stroke-width:0.100013;stroke-miterlimit:4;stroke-dasharray:none;stroke-opacity:1"
     id="rect916-2-7-0"
     width="5"
     height="11"
     x="131.15016"
     y="-154"
     transform="rotate(90)" />
  <circle
     style="fill:none;fill-opacity:1;stroke:#ff0000;stroke-width:0.100013;stroke-miterlimit:4;stroke-dasharray:none;stroke-opacity:1"
     id="path918"
     cx="39.006874"
     cy="-132.00002"
     r="3.5"
     transform="rotate(90)" />
  <circle
     style="fill:none;fill-opacity:1;stroke:#ff0000;stroke-width:0.112691;stroke-miterlimit:4;stroke-dasharray:none;stroke-opacity:1"
     id="path918-0"
     cx="24"
     cy="-213"
     transform="rotate(90)"
     r="3.9436548" />
  <circle
     style="fill:none;fill-opacity:1;stroke:#ff0000;stroke-width:0.112691;stroke-miterlimit:4;stroke-dasharray:none;stroke-opacity:1"
     id="path918-0-3"
     cx="48"
     cy="-213"
     transform="rotate(90)"
     r="3.9436548" />
  <circle
     style="fill:none;fill-opacity:1;stroke:#ff0000;stroke-width:0.112691;stroke-miterlimit:4;stroke-dasharray:none;stroke-opacity:1"
     id="path918-0-3-7"
     cx="48"
     cy="-270"
     transform="rotate(90)"
     r="3.9436548" />
  <circle
     style="fill:none;fill-opacity:1;stroke:#ff0000;stroke-width:0.112691;stroke-miterlimit:4;stroke-dasharray:none;stroke-opacity:1"
     id="path918-0-3-4"
     cx="24"
     cy="-270"
     transform="rotate(90)"
     r="3.9436548" />
</svg>
