<?xml version="1.0" encoding="UTF-8" standalone="no"?>
<svg
   xmlns:dc="http://purl.org/dc/elements/1.1/"
   xmlns:cc="http://creativecommons.org/ns#"
   xmlns:rdf="http://www.w3.org/1999/02/22-rdf-syntax-ns#"
   xmlns:svg="http://www.w3.org/2000/svg"
   xmlns="http://www.w3.org/2000/svg"
   xmlns:sodipodi="http://sodipodi.sourceforge.net/DTD/sodipodi-0.dtd"
   xmlns:inkscape="http://www.inkscape.org/namespaces/inkscape"
   width="720mm"
   height="181mm"
   viewBox="0 0 720 181"
   version="1.1"
   preserveAspectRatio="xMidYMid meet"
   id="svg908"
   sodipodi:docname="nanocase.svg"
   inkscape:version="1.0.2 (e86c8708, 2021-01-15)">
  <metadata
     id="metadata914">
    <rdf:RDF>
      <cc:Work
         rdf:about="">
        <dc:format>image/svg+xml</dc:format>
        <dc:type
           rdf:resource="http://purl.org/dc/dcmitype/StillImage" />
        <dc:title></dc:title>
      </cc:Work>
    </rdf:RDF>
  </metadata>
  <defs
     id="defs912" />
  <sodipodi:namedview
     pagecolor="#ffffff"
     bordercolor="#666666"
     borderopacity="1"
     objecttolerance="10"
     gridtolerance="10"
     guidetolerance="10"
     inkscape:pageopacity="0"
     inkscape:pageshadow="2"
     inkscape:window-width="1280"
     inkscape:window-height="947"
     id="namedview910"
     showgrid="false"
     inkscape:document-units="mm"
     inkscape:zoom="0.57461336"
     inkscape:cx="1334.4128"
     inkscape:cy="224.90503"
     inkscape:window-x="0"
     inkscape:window-y="23"
     inkscape:window-maximized="0"
     inkscape:current-layer="svg908"
     inkscape:document-rotation="0"
     inkscape:snap-global="false"
     inkscape:snap-page="false" />
  <g
     id="svgGroup"
     stroke-linecap="round"
     fill-rule="evenodd"
     font-size="12px"
     stroke="#000"
     stroke-width="0.25mm"
     fill="none"
     style="fill:none;stroke:#000000;stroke-width:0.25mm"
     transform="translate(1.5874928)">
    <path
       d="m 382,141 v 9.48 h -3 v 18.04 h 3 V 178 h 26.7 v 3 h 18.04 v -3 h 18.04 v 3 h 18.04 v -3 h 18.04 v 3 h 18.04 v -3 h 18.04 v 3 h 18.04 v -3 h 18.04 v 3 h 18.04 v -3 h 18.04 v 3 h 18.04 v -3 h 18.04 v 3 h 18.04 v -3 h 18.04 v 3 h 18.04 v -3 h 18.04 8.66 v -9.48 h 3 v -18.04 h -3 V 141 h -26.7 v -3 h -18.04 v 3 h -18.04 v -3 h -18.04 v 3 h -18.04 v -3 H 589.1 v 3 h -18.04 v -3 h -18.04 v 3 h -18.04 v -3 h -18.04 v 3 H 498.9 v -3 h -18.04 v 3 h -18.04 v -3 h -18.04 v 3 h -18.04 v -3 H 408.7 v 3 h -18.04 z"
       id="top_outsideCutPath"
       stroke="#FF0000"
       stroke-width="0.1"
       style="stroke:#ff0000;stroke-width:0.1"
       vector-effect="non-scaling-stroke" />
    <path
       d="m 382,95 v 9.48 h -3 v 18.04 h 3 V 132 h 26.7 v 3 h 18.04 v -3 h 18.04 v 3 h 18.04 v -3 h 18.04 v 3 h 18.04 v -3 h 18.04 v 3 h 18.04 v -3 h 18.04 v 3 h 18.04 v -3 h 18.04 v 3 h 18.04 v -3 h 18.04 v 3 h 18.04 v -3 h 18.04 v 3 h 18.04 v -3 h 18.04 8.66 v -9.48 h 3 v -18.04 h -3 V 95 h -26.7 v -3 h -18.04 v 3 h -18.04 v -3 h -18.04 v 3 H 607.14 V 92 H 589.1 v 3 h -18.04 v -3 h -18.04 v 3 h -18.04 v -3 h -18.04 v 3 H 498.9 v -3 h -18.04 v 3 h -18.04 v -3 h -18.04 v 3 H 426.74 V 92 H 408.7 v 3 h -18.04 z"
       id="bottom_outsideCutPath"
       stroke="#FF0000"
       stroke-width="0.1"
       style="stroke:#ff0000;stroke-width:0.1"
       vector-effect="non-scaling-stroke" />
  </g>
  <rect
     style="fill:none;stroke:#ff0000;stroke-width:0.0991392"
     id="rect23"
     width="321.50085"
     height="79.100861"
     x="5.6871719"
     y="4.9241962"
     ry="2.5363126" />
  <g
     id="g1515"
     transform="translate(1.5874928)">
    <path
       d="m 336,0 v 17.44 h -3 v 18.04 h 3 v 18.04 h -3 v 18.04 h 3 V 89 h 9.48 v -3 h 18.04 v 3 H 373 V 71.56 h 3 V 53.52 h -3 V 35.48 h 3 V 17.44 h -3 V 0 h -9.48 V 3 H 345.48 V 0 Z"
       id="right_outsideCutPath"
       stroke="#FF0000"
       stroke-width="0.1"
       style="fill:none;stroke:#ff0000;stroke-width:0.100013;stroke-miterlimit:4;stroke-dasharray:none"
       vector-effect="non-scaling-stroke" />
    <rect
       style="fill:none;fill-opacity:1;stroke:#ff0000;stroke-width:0.179118;stroke-miterlimit:4;stroke-dasharray:none;stroke-opacity:1"
       id="rect916"
       width="10.820882"
       height="14.820883"
       x="361.17325"
       y="24.00466" />
    <circle
       style="fill:none;fill-opacity:1;stroke:#ff0000;stroke-width:0.100013;stroke-miterlimit:4;stroke-dasharray:none;stroke-opacity:1"
       id="path918"
       cx="352.91702"
       cy="20.988529"
       r="3.5" />
    <rect
       style="fill:none;fill-opacity:1;stroke:#ff0000;stroke-width:0.173056;stroke-miterlimit:4;stroke-dasharray:none;stroke-opacity:1"
       id="rect916-25"
       width="10.826943"
       height="13.826944"
       x="343.15015"
       y="31.031872" />
  </g>
  <g
     id="g1523"
     transform="translate(1.5874928)">
    <path
       d="m 336,92 v 17.44 h -3 v 18.04 h 3 v 18.04 h -3 v 18.04 h 3 V 181 h 9.48 v -3 h 18.04 v 3 H 373 v -17.44 h 3 v -18.04 h -3 v -18.04 h 3 v -18.04 h -3 V 92 h -9.48 v 3 h -18.04 v -3 z"
       id="left_outsideCutPath"
       stroke="#FF0000"
       stroke-width="0.1"
       style="fill:none;stroke:#ff0000;stroke-width:0.1"
       vector-effect="non-scaling-stroke" />
    <rect
       style="fill:none;fill-opacity:1;stroke:#ff0000;stroke-width:0.100013;stroke-miterlimit:4;stroke-dasharray:none;stroke-opacity:1"
       id="rect916-2"
       width="7"
       height="15"
       x="359.04514"
       y="153" />
    <rect
       style="fill:none;fill-opacity:1;stroke:#ff0000;stroke-width:0.100013;stroke-miterlimit:4;stroke-dasharray:none;stroke-opacity:1"
       id="rect916-2-7"
       width="7"
       height="15"
       x="359.04514"
       y="121" />
    <rect
       style="fill:none;fill-opacity:1;stroke:#ff0000;stroke-width:0.100013;stroke-miterlimit:4;stroke-dasharray:none;stroke-opacity:1"
       id="rect916-2-7-0"
       width="5"
       height="11"
       x="360.04514"
       y="139" />
    <rect
       style="fill:none;fill-opacity:1;stroke:#ff0000;stroke-width:0.119942;stroke-miterlimit:4;stroke-dasharray:none;stroke-opacity:1"
       id="rect916-2-7-9"
       width="10.880057"
       height="13.880057"
       x="355.16507"
       y="98.124115" />
  </g>
  <path
     d="m 2.9999999,95 v 14.44001 H 0 V 127.48 h 2.9999999 v 18.04 H 0 v 18.04 H 2.9999999 V 178 H 31.2 v 3 h 18.039999 v -3 h 18.04 v 3 h 18.04 v -3 h 18.039981 v 3 h 18.04 v -3 h 18.04001 v 3 h 18.04 v -3 h 18.04 v 3 h 18.04 v -3 h 18.04 v 3 h 18.04 v -3 h 18.04 v 3 h 18.04 v -3 h 18.04 v 3 h 18.04 v -3 h 18.04 10.16 v -14.44 h 3 v -18.04 h -3 v -18.04 h 3 v -18.03999 h -3 V 95 h -28.2 v -3 h -18.04 v 3 h -18.04 v -3 h -18.04 v 3 h -18.04 v -3 h -18.04 v 3 h -18.04 v -3 h -18.04 v 3 h -18.04 v -3 h -18.04 v 3 h -18.04001 v -3 h -18.04 v 3 H 85.319999 v -3 h -18.04 v 3 h -18.04 V 92 H 31.2 v 3 H 13.159999 Z"
     id="top_outsideCutPath-6"
     stroke="#FF0000"
     stroke-width="0.1"
     style="fill:none;stroke:#ff0000;stroke-width:0.1"
     vector-effect="non-scaling-stroke" />
  <path
     d="M 2.9999999,3.0000001 V 17.439999 H 0 V 35.48 H 2.9999999 V 53.52 H 0 V 71.56 H 2.9999999 V 86 H 31.2 v 3 h 18.039999 v -3 h 18.04 v 3 h 18.04 v -3 h 18.039981 v 3 h 18.04 v -3 h 18.04001 v 3 h 18.04 v -3 h 18.04 v 3 h 18.04 v -3 h 18.04 v 3 h 18.04 v -3 h 18.04 v 3 h 18.04 v -3 h 18.04 v 3 h 18.04 v -3 h 18.04 10.16 V 71.56 h 3 V 53.52 h -3 V 35.48 h 3 V 17.439999 h -3 V 3.0000001 h -28.2 V 0 h -18.04 v 3.0000001 h -18.04 V 0 h -18.04 v 3.0000001 h -18.04 V 0 h -18.04 v 3.0000001 h -18.04 V 0 h -18.04 v 3.0000001 h -18.04 V 0 h -18.04 V 3.0000001 H 121.39998 V 0 h -18.04 V 3.0000001 H 85.319999 V 0 h -18.04 v 3.0000001 h -18.04 V 0 H 31.2 V 3.0000001 H 13.159999 Z"
     id="bottom_outsideCutPath-7"
     stroke="#FF0000"
     stroke-width="0.1"
     style="fill:none;stroke:#ff0000;stroke-width:0.1"
     vector-effect="non-scaling-stroke" />
</svg>
